<?xml version="1.0" encoding="utf-8"?>
<svg xmlns="http://www.w3.org/2000/svg" style="margin: auto; background: none; display: block; shape-rendering: auto; animation-play-state: running; animation-delay: 0s;" width="286" height="250" preserveAspectRatio="xMidYMid">
<style type="text/css" style="animation-play-state: running; animation-delay: 0s;">
  text {
    text-anchor: middle; font-size: 30px; opacity: 0;
  }
</style>
<g style="transform-origin: 143px 125px; transform: scale(1); animation-play-state: running; animation-delay: 0s;">
<g transform="translate(143,125)" style="animation-play-state: running; animation-delay: 0s;">
  <g transform="translate(0,0)" style="animation-play-state: running; animation-delay: 0s;"><g class="path" style="transform: scale(1); transform-origin: -129.945px -2.38004px; animation: 1s linear -0.623333s infinite normal forwards running beat-cb763adb-962b-4774-9c7f-604f239543a2;"><path d="M5.10 0L5.10-19.50L0-19.50L0-21L12.06-21L12.06-19.50L6.78-19.50L6.78 0L5.10 0" fill="#51cacc" stroke="none" stroke-width="none" transform="translate(-135.9749755859375,8.119960971408425)" style="fill: rgb(81, 202, 204); animation-play-state: running; animation-delay: 0s;"></path></g><g class="path" style="transform: scale(1); transform-origin: -115.98px -2.38004px; animation: 1s linear -0.586667s infinite normal forwards running beat-cb763adb-962b-4774-9c7f-604f239543a2;"><path d="M25.77 0L23.37-7.35L16.53-7.35L14.19 0L12.42 0L19.14-21L20.73-21L27.57 0L25.77 0zM19.92-18.39L17.01-9L22.92-9L19.92-18.39" fill="#51cacc" stroke="none" stroke-width="none" transform="translate(-135.9749755859375,8.119960971408425)" style="fill: rgb(157, 248, 113); animation-play-state: running; animation-delay: 0s;"></path></g><g class="path" style="transform: scale(1); transform-origin: -104.28px -2.38004px; animation: 1s linear -0.55s infinite normal forwards running beat-cb763adb-962b-4774-9c7f-604f239543a2;"><path d="M31.86 0L31.86-19.47L29.85-19.53L29.85-21L33.54-21L33.54 0L31.86 0" fill="#51cacc" stroke="none" stroke-width="none" transform="translate(-135.9749755859375,8.119960971408425)" style="fill: rgb(224, 255, 119); animation-play-state: running; animation-delay: 0s;"></path></g><g class="path" style="transform: scale(1); transform-origin: -92.43px -2.38004px; animation: 1s linear -0.513333s infinite normal forwards running beat-cb763adb-962b-4774-9c7f-604f239543a2;"><path d="M38.13 0L38.13-21L39.81-21L39.81-1.50L48.96-1.50L48.96 0L38.13 0" fill="#51cacc" stroke="none" stroke-width="none" transform="translate(-135.9749755859375,8.119960971408425)" style="fill: rgb(222, 157, 214); animation-play-state: running; animation-delay: 0s;"></path></g><g class="path" style="transform: scale(1); transform-origin: -83.16px -2.38004px; animation: 1s linear -0.476667s infinite normal forwards running beat-cb763adb-962b-4774-9c7f-604f239543a2;"><path d="M52.98 0L52.98-19.47L50.97-19.53L50.97-21L54.66-21L54.66 0L52.98 0" fill="#51cacc" stroke="none" stroke-width="none" transform="translate(-135.9749755859375,8.119960971408425)" style="fill: rgb(255, 112, 142); animation-play-state: running; animation-delay: 0s;"></path></g><g class="path" style="transform: scale(1); transform-origin: -71.715px -2.38004px; animation: 1s linear -0.44s infinite normal forwards running beat-cb763adb-962b-4774-9c7f-604f239543a2;"><path d="M59.25 0L59.25-21L69.27-21L69.27-19.44L60.93-19.44L60.93-12.39L66.66-12.39L66.09-10.74L60.93-10.74L60.93-1.50L69.21-1.50L69.21 0L59.25 0" fill="#51cacc" stroke="none" stroke-width="none" transform="translate(-135.9749755859375,8.119960971408425)" style="fill: rgb(81, 202, 204); animation-play-state: running; animation-delay: 0s;"></path></g><g class="path" style="transform: scale(1); transform-origin: -56.58px -2.29004px; animation: 1s linear -0.403333s infinite normal forwards running beat-cb763adb-962b-4774-9c7f-604f239543a2;"><path d="M84.03-21.03L85.71-21.03L85.71-5.58L85.71-5.58Q85.71-2.55 83.86-1.17L83.86-1.17L83.86-1.17Q82.02 0.21 79.41 0.21L79.41 0.21L79.41 0.21Q76.80 0.21 74.94-1.17L74.94-1.17L74.94-1.17Q73.08-2.55 73.08-5.58L73.08-5.58L73.08-21.03L74.76-21.03L74.76-5.34L74.76-5.34Q74.76-3.51 76.09-2.40L76.09-2.40L76.09-2.40Q77.43-1.29 79.38-1.29L79.38-1.29L79.38-1.29Q81.33-1.29 82.68-2.40L82.68-2.40L82.68-2.40Q84.03-3.51 84.03-5.34L84.03-5.34L84.03-21.03" fill="#51cacc" stroke="none" stroke-width="none" transform="translate(-135.9749755859375,8.119960971408425)" style="fill: rgb(157, 248, 113); animation-play-state: running; animation-delay: 0s;"></path></g><g class="path" style="transform: scale(1); transform-origin: -40.74px -2.38004px; animation: 1s linear -0.366667s infinite normal forwards running beat-cb763adb-962b-4774-9c7f-604f239543a2;"><path d="M100.65-0.69L100.65-0.69Q97.98 0.30 95.67 0.30L95.67 0.30L95.67 0.30Q93.06 0.30 91.44-1.08L91.44-1.08L91.44-1.08Q89.82-2.46 89.82-5.49L89.82-5.49L89.82-15.12L89.82-15.12Q89.82-17.40 90.47-18.57L90.47-18.57L90.47-18.57Q91.11-19.74 92.43-20.55L92.43-20.55L92.43-20.55Q93.75-21.30 95.67-21.30L95.67-21.30L95.67-21.30Q98.01-21.30 99.90-20.31L99.90-20.31L99.42-19.17L99.42-19.17Q97.71-19.80 96.18-19.80L96.18-19.80L96.18-19.80Q94.35-19.80 92.92-18.90L92.92-18.90L92.92-18.90Q91.50-18 91.50-15.39L91.50-15.39L91.50-5.55L91.50-5.55Q91.50-3.48 92.58-2.35L92.58-2.35L92.58-2.35Q93.66-1.23 95.82-1.23L95.82-1.23L95.82-1.23Q97.71-1.23 100.29-2.10L100.29-2.10L100.65-0.69" fill="#51cacc" stroke="none" stroke-width="none" transform="translate(-135.9749755859375,8.119960971408425)" style="fill: rgb(224, 255, 119); animation-play-state: running; animation-delay: 0s;"></path></g><g class="path" style="transform: scale(1); transform-origin: -26.265px -2.38004px; animation: 1s linear -0.33s infinite normal forwards running beat-cb763adb-962b-4774-9c7f-604f239543a2;"><path d="M114.48 0L114.48-10.74L104.94-10.74L104.94 0L103.26 0L103.26-21L104.94-21L104.94-12.39L114.48-12.39L114.48-21L116.16-21L116.16 0L114.48 0" fill="#51cacc" stroke="none" stroke-width="none" transform="translate(-135.9749755859375,8.119960971408425)" style="fill: rgb(222, 157, 214); animation-play-state: running; animation-delay: 0s;"></path></g><g class="path" style="transform: scale(1); transform-origin: -8.87997px -2.29004px; animation: 1s linear -0.293333s infinite normal forwards running beat-cb763adb-962b-4774-9c7f-604f239543a2;"><path d="M131.73-21.03L133.41-21.03L133.41-5.58L133.41-5.58Q133.41-2.55 131.56-1.17L131.56-1.17L131.56-1.17Q129.72 0.21 127.11 0.21L127.11 0.21L127.11 0.21Q124.50 0.21 122.64-1.17L122.64-1.17L122.64-1.17Q120.78-2.55 120.78-5.58L120.78-5.58L120.78-21.03L122.46-21.03L122.46-5.34L122.46-5.34Q122.46-3.51 123.80-2.40L123.80-2.40L123.80-2.40Q125.13-1.29 127.08-1.29L127.08-1.29L127.08-1.29Q129.03-1.29 130.38-2.40L130.38-2.40L130.38-2.40Q131.73-3.51 131.73-5.34L131.73-5.34L131.73-21.03" fill="#51cacc" stroke="none" stroke-width="none" transform="translate(-135.9749755859375,8.119960971408425)" style="fill: rgb(255, 112, 142); animation-play-state: running; animation-delay: 0s;"></path></g><g class="path" style="transform: scale(1); transform-origin: 8.02502px -2.27504px; animation: 1s linear -0.256667s infinite normal forwards running beat-cb763adb-962b-4774-9c7f-604f239543a2;"><path d="M147.12-0.90L147.12-0.90Q147.90-1.20 148.42-1.99L148.42-1.99L148.42-1.99Q148.95-2.79 148.95-4.56L148.95-4.56L148.95-8.82L148.95-8.82Q148.14-8.10 146.79-7.72L146.79-7.72L146.79-7.72Q145.44-7.35 144.21-7.35L144.21-7.35L144.21-7.35Q141.03-7.35 139.19-8.92L139.19-8.92L139.19-8.92Q137.34-10.50 137.34-13.59L137.34-13.59L137.34-21L139.02-21L139.02-13.29L139.02-13.29Q139.02-11.19 140.46-10.09L140.46-10.09L140.46-10.09Q141.90-9 144.21-9L144.21-9L144.21-9Q145.98-9 147.30-9.75L147.30-9.75L147.30-9.75Q148.62-10.50 148.95-12L148.95-12L148.95-21L150.66-21L150.66-4.68L150.66-4.68Q150.66-2.49 149.83-1.24L149.83-1.24L149.83-1.24Q149.01 0 147.51 0.21L147.51 0.21L147.12-0.90" fill="#51cacc" stroke="none" stroke-width="none" transform="translate(-135.9749755859375,8.119960971408425)" style="fill: rgb(81, 202, 204); animation-play-state: running; animation-delay: 0s;"></path></g><g class="path" style="transform: scale(1); transform-origin: 23.715px -2.38004px; animation: 1s linear -0.22s infinite normal forwards running beat-cb763adb-962b-4774-9c7f-604f239543a2;"><path d="M154.68 0L154.68-21L164.70-21L164.70-19.44L156.36-19.44L156.36-12.39L162.09-12.39L161.52-10.74L156.36-10.74L156.36-1.50L164.64-1.50L164.64 0L154.68 0" fill="#51cacc" stroke="none" stroke-width="none" transform="translate(-135.9749755859375,8.119960971408425)" style="fill: rgb(157, 248, 113); animation-play-state: running; animation-delay: 0s;"></path></g><g class="path" style="transform: scale(1); transform-origin: 40.035px -2.38004px; animation: 1s linear -0.183333s infinite normal forwards running beat-cb763adb-962b-4774-9c7f-604f239543a2;"><path d="M181.71 0L170.31-17.91L170.31 0L168.63 0L168.63-21L170.31-21L181.71-3.09L181.71-21L183.39-21L183.39 0L181.71 0" fill="#51cacc" stroke="none" stroke-width="none" transform="translate(-135.9749755859375,8.119960971408425)" style="fill: rgb(224, 255, 119); animation-play-state: running; animation-delay: 0s;"></path></g><g class="path" style="transform: scale(1); transform-origin: 59.535px -2.38004px; animation: 1s linear -0.146667s infinite normal forwards running beat-cb763adb-962b-4774-9c7f-604f239543a2;"><path d="M201.21 0L189.81-17.91L189.81 0L188.13 0L188.13-21L189.81-21L201.21-3.09L201.21-21L202.89-21L202.89 0L201.21 0" fill="#51cacc" stroke="none" stroke-width="none" transform="translate(-135.9749755859375,8.119960971408425)" style="fill: rgb(222, 157, 214); animation-play-state: running; animation-delay: 0s;"></path></g><g class="path" style="transform: scale(1); transform-origin: 77.43px -2.36504px; animation: 1s linear -0.11s infinite normal forwards running beat-cb763adb-962b-4774-9c7f-604f239543a2;"><path d="M218.34 0L217.92-1.23L217.92-1.23Q216.36 0.30 213.57 0.30L213.57 0.30L213.57 0.30Q211.89 0.30 210.45-0.33L210.45-0.33L210.45-0.33Q209.01-0.96 208.13-2.31L208.13-2.31L208.13-2.31Q207.24-3.66 207.24-5.67L207.24-5.67L207.24-15.09L207.24-15.09Q207.24-17.19 207.91-18.46L207.91-18.46L207.91-18.46Q208.59-19.74 209.85-20.52L209.85-20.52L209.85-20.52Q211.17-21.27 213.09-21.27L213.09-21.27L213.09-21.27Q215.43-21.27 217.32-20.28L217.32-20.28L216.84-19.14L216.84-19.14Q215.13-19.77 213.60-19.77L213.60-19.77L213.60-19.77Q211.77-19.77 210.34-18.87L210.34-18.87L210.34-18.87Q208.92-17.97 208.92-15.36L208.92-15.36L208.92-5.61L208.92-5.61Q208.92-3.60 210.22-2.46L210.22-2.46L210.22-2.46Q211.53-1.32 213.54-1.32L213.54-1.32L213.54-1.32Q215.58-1.32 216.78-2.49L216.78-2.49L216.78-2.49Q217.98-3.66 217.98-5.58L217.98-5.58L217.98-7.35L216-7.35L215.43-9L219.57-9L219.57 0L218.34 0" fill="#51cacc" stroke="none" stroke-width="none" transform="translate(-135.9749755859375,8.119960971408425)" style="fill: rgb(255, 112, 142); animation-play-state: running; animation-delay: 0s;"></path></g><g class="path" style="transform: scale(1); transform-origin: 93.36px -2.38004px; animation: 1s linear -0.0733333s infinite normal forwards running beat-cb763adb-962b-4774-9c7f-604f239543a2;"><path d="M235.11 0L232.71-7.35L225.87-7.35L223.53 0L221.76 0L228.48-21L230.07-21L236.91 0L235.11 0zM229.26-18.39L226.35-9L232.26-9L229.26-18.39" fill="#51cacc" stroke="none" stroke-width="none" transform="translate(-135.9749755859375,8.119960971408425)" style="fill: rgb(81, 202, 204); animation-play-state: running; animation-delay: 0s;"></path></g><g class="path" style="transform: scale(1); transform-origin: 110.955px -2.38004px; animation: 1s linear -0.0366667s infinite normal forwards running beat-cb763adb-962b-4774-9c7f-604f239543a2;"><path d="M252.63 0L241.23-17.91L241.23 0L239.55 0L239.55-21L241.23-21L252.63-3.09L252.63-21L254.31-21L254.31 0L252.63 0" fill="#51cacc" stroke="none" stroke-width="none" transform="translate(-135.9749755859375,8.119960971408425)" style="fill: rgb(157, 248, 113); animation-play-state: running; animation-delay: 0s;"></path></g><g class="path" style="transform: scale(1); transform-origin: 129.525px -2.38004px; animation: 1s linear 0s infinite normal forwards running beat-cb763adb-962b-4774-9c7f-604f239543a2;"><path d="M270.27 0L270.27-10.74L260.73-10.74L260.73 0L259.05 0L259.05-21L260.73-21L260.73-12.39L270.27-12.39L270.27-21L271.95-21L271.95 0L270.27 0" fill="#51cacc" stroke="none" stroke-width="none" transform="translate(-135.9749755859375,8.119960971408425)" style="fill: rgb(224, 255, 119); animation-play-state: running; animation-delay: 0s;"></path></g></g>
</g>
</g>
<style id="beat-cb763adb-962b-4774-9c7f-604f239543a2" data-anikit="">@keyframes beat-cb763adb-962b-4774-9c7f-604f239543a2
{
  0% {
    animation-timing-function: cubic-bezier(0.1028,0.2484,0.1372,0.849);
    transform: scale(1);
  }
  34% {
    animation-timing-function: cubic-bezier(0.7116,0.2095,0.8159,0.6876);
    transform: scale(1.2);
  }
  68% {
    animation-timing-function: cubic-bezier(0.1475,0.2888,0.294,0.883);
    transform: scale(1.0268);
  }
  84% {
    animation-timing-function: cubic-bezier(0.8176,0.2193,0.867,0.6889);
    transform: scale(1.0932);
  }
  100% {
    transform: scale(1);
  }
}</style></svg>